# xmcd
#
# Track frame offsets:
#   150
#   20398
#   38356
#   55300
#   71511
#   90962
#   108335
#   126064
#   143740
#   165159
#   180719
#   201851
#
# Disc length: 2964 seconds
#
# Revision: 0
# Processed by: cddbd v1.5.2PL0 Copyright (c) Steve Scherf et al.
# Submitted via: uFREEDB ActiveX Control 1.5
#
DISCID=8f0b920c
DTITLE=Sertanejo - Sertanejo
DYEAR=1900
DGENRE=Country
TTITLE0=05
TTITLE1=02
TTITLE2=03
TTITLE3=04
TTITLE4=05
TTITLE5=06
TTITLE6=07
TTITLE7=08
TTITLE8=09
TTITLE9=10
TTITLE10=11
TTITLE11=12
EXTD=
EXTT0=
EXTT1=
EXTT2=
EXTT3=
EXTT4=
EXTT5=
EXTT6=
EXTT7=
EXTT8=
EXTT9=
EXTT10=
EXTT11=
PLAYORDER=
